{"title":"Michael.Tuesdays.And.Thursdays.s01e03.Vomiting.WS.XviD-jAh","uid":6714038,"size":183572040,"categoryP":"video","categoryS":"tv_shows","magnet":"?xt=urn:btih:d3db03e16e05173f2629e99281686864d0bc1f74&amp;dn=Michael.Tuesdays.And.Thursdays.s01e03.Vomiting.WS.XviD-jAh&amp;tr=udp%3A%2F%2Ftracker.openbittorrent.com%3A80&amp;tr=udp%3A%2F%2Fopen.demonii.com%3A1337&amp;tr=udp%3A%2F%2Ftracker.coppersurfer.tk%3A6969&amp;tr=udp%3A%2F%2Fexodus.desync.com%3A6969","seeders":0,"leechers":0,"uploader":"iamgreat","files":2,"time":1317474677,"description":"Michael: Tuesdays &amp; Thursdays s01e03: Vomiting\n\nThis sitcom follows a psychiatrist and his most challenging patient. This episode was broadcast on 27 September 2011 on CBC. \n\nGeneral\nComplete name                    : Michael.Tuesdays.And.Thursdays.s01e03.Vomiting.WS.XviD-jAh.avi\nFormat                           : AVI\nFormat/Info                      : Audio Video Interleave\nFile size                        : 175 MiB\nDuration                         : 22mn 11s\nOverall bit rate mode            : Variable\nOverall bit rate                 : 1 103 Kbps\nWriting application              : VirtualDubMod 1.5.4.1 (build 2178/release)\nWriting library                  : VirtualDubMod build 2178/release\n\nVideo\nID                               : 0\nFormat                           : MPEG-4 Visual\nFormat profile                   : Simple@L3\nFormat settings, BVOP            : No\nFormat settings, QPel            : No\nFormat settings, GMC             : No warppoints\nFormat settings, Matrix          : Default (H.263)\nCodec ID                         : XVID\nCodec ID/Hint                    : XviD\nDuration                         : 22mn 11s\nBit rate                         : 982 Kbps\nWidth                            : 624 pixels\nHeight                           : 352 pixels\nDisplay aspect ratio             : 16:9\nFrame rate                       : 23.976 fps\nColor space                      : YUV\nChroma subsampling               : 4:2:0\nBit depth                        : 8 bits\nScan type                        : Progressive\nCompression mode                 : Lossy\nBits/(Pixel*Frame)               : 0.186\nStream size                      : 156 MiB (89%)\nWriting library                  : XviD 1.2.1 (UTC 2008-12-04)\n\nAudio\nID                               : 1\nFormat                           : MPEG Audio\nFormat version                   : Version 1\nFormat profile                   : Layer 3\nMode                             : Joint stereo\nMode extension                   : MS Stereo\nCodec ID                         : 55\nCodec ID/Hint                    : MP3\nDuration                         : 22mn 11s\nBit rate mode                    : Variable\nBit rate                         : 108 Kbps\nNominal bit rate                 : 128 Kbps\nChannel(s)                       : 2 channels\nSampling rate                    : 48.0 KHz\nCompression mode                 : Lossy\nStream size                      : 17.2 MiB (10%)\nAlignment                        : Aligned on interleaves\nInterleave, duration             : 24 ms (0.58 video frame)\nInterleave, preload duration     : 506 ms\nWriting library                  : LAME3.98r\nEncoding settings                : -m j -V 4 -q 2 -lowpass 17 --abr 128\n\n\n","torrent":{"xt":"urn:btih:d3db03e16e05173f2629e99281686864d0bc1f74","amp;dn":"Michael.Tuesdays.And.Thursdays.s01e03.Vomiting.WS.XviD-jAh","amp;tr":["udp%3A%2F%2Ftracker.openbittorrent.com%3A80","udp%3A%2F%2Fopen.demonii.com%3A1337","udp%3A%2F%2Ftracker.coppersurfer.tk%3A6969","udp%3A%2F%2Fexodus.desync.com%3A6969"],"infoHash":"d3db03e16e05173f2629e99281686864d0bc1f74","infoHashBuffer":{"type":"Buffer","data":[211,219,3,225,110,5,23,63,38,41,233,146,129,104,104,100,208,188,31,116]},"announce":[],"urlList":[]}}